<?xml version="1.0" encoding="UTF-8" standalone="no"?><!DOCTYPE svg PUBLIC "-//W3C//DTD SVG 1.1//EN" "http://www.w3.org/Graphics/SVG/1.1/DTD/svg11.dtd"><svg width="100%" height="100%" viewBox="0 0 1800 1200" version="1.1" xmlns="http://www.w3.org/2000/svg" xmlns:xlink="http://www.w3.org/1999/xlink" xml:space="preserve" xmlns:serif="http://www.serif.com/" style="fill-rule:evenodd;clip-rule:evenodd;stroke-linecap:round;stroke-linejoin:round;stroke-miterlimit:1.5;"><path d="M148.117,54.588c0,0 76.542,101.848 49.278,254.964c-104.568,587.272 75.989,729.938 75.989,729.938c0,0 91.63,41.416 246.424,70.477c10.442,1.96 75.944,11.985 88.42,13.711c111.896,15.486 291.773,21.734 291.773,21.734l0,-952.39c0,0 -252.947,6.27 -416.363,-32.328c-237.391,-56.07 -335.52,-106.107 -335.52,-106.107Z" style="fill:#6486a2;stroke:#6486a2;stroke-width:0.83px;"/><path d="M1651.883,54.588c0,0 -76.542,101.848 -49.278,254.964c104.568,587.272 -75.989,729.938 -75.989,729.938c0,0 -91.63,41.416 -246.424,70.477c-10.442,1.96 -75.944,11.985 -88.42,13.711c-111.896,15.486 -291.773,21.734 -291.773,21.734l0,-952.39c0,0 252.947,6.27 416.363,-32.328c237.391,-56.07 335.52,-106.107 335.52,-106.107Z" style="fill:#38556a;stroke:#38556a;stroke-width:0.83px;"/><path d="M900.116,719.918l0,269.34l-12.002,-24.023l-8.918,-15.642l-10.918,-20.566l-10.219,-16.723l-15.212,-19.332l-12.527,-14.671l-12.325,-11.355l-12.467,-8.377l-13.685,-8.008c0,0 9.455,-7.121 13.659,-10.497c4.051,-3.253 11.568,-9.76 11.568,-9.76c0,0 6.982,-6.856 12.156,-10.765c3.658,-2.763 12.732,-11.808 12.732,-11.808l9.545,-10.462c0,0 7.501,-8.539 10.298,-11.545c2.648,-2.846 8.531,-10.591 8.531,-10.591l8.061,-13.422c0,0 5.458,-10.598 7.569,-14.429c1.895,-3.439 6.859,-12.37 6.859,-12.37l7.295,-14.995Z" style="fill:#bb9c63;"/><circle cx="604.594" cy="606.779" r="316.987" style="fill:#fff;stroke:#fff;stroke-width:1.67px;"/><circle cx="604.594" cy="606.779" r="180.913" style="fill:#6386a4;stroke:#6386a4;stroke-width:1.67px;"/><circle cx="604.594" cy="606.779" r="143.365" style="fill:#2f2f2f;"/><path d="M900.116,726.084l0,269.34l12.002,-24.023l8.918,-15.642l10.918,-20.566l10.219,-16.723l15.212,-19.332l12.527,-14.671l12.325,-11.355l12.467,-8.377l13.685,-8.008c0,0 -9.455,-7.121 -13.659,-10.497c-4.051,-3.253 -11.568,-9.76 -11.568,-9.76c0,0 -6.982,-6.856 -12.156,-10.765c-3.658,-2.763 -12.732,-11.808 -12.732,-11.808l-9.545,-10.462c0,0 -7.501,-8.539 -10.298,-11.545c-2.648,-2.846 -8.531,-10.591 -8.531,-10.591l-8.061,-13.422c0,0 -5.458,-10.598 -7.569,-14.429c-1.895,-3.439 -6.859,-12.37 -6.859,-12.37l-7.295,-14.995Z" style="fill:#9e7141;"/><circle cx="541.523" cy="561.97" r="29.225" style="fill:#fff;stroke:#fff;stroke-width:3.75px;"/><circle cx="1195.406" cy="606.779" r="316.987" style="fill:#fff;stroke:#fff;stroke-width:1.67px;"/><circle cx="1195.406" cy="606.779" r="180.913" style="fill:#3d5569;stroke:#3d5569;stroke-width:1.67px;"/><circle cx="1195.406" cy="606.779" r="143.365" style="fill:#2f2f2f;"/><circle cx="1127.291" cy="561.97" r="29.225" style="fill:#fff;stroke:#fff;stroke-width:3.75px;"/></svg>